<?xml version="1.0" encoding="iso-8859-1"?>
<!-- Generator: Adobe Illustrator 19.0.0, SVG Export Plug-In . SVG Version: 6.00 Build 0)  -->
<svg version="1.1" id="Layer_1" xmlns="http://www.w3.org/2000/svg" xmlns:xlink="http://www.w3.org/1999/xlink" x="0px" y="0px"
	 viewBox="0 0 512 512" style="enable-background:new 0 0 512 512;" xml:space="preserve">
<circle style="fill:#4AB8A1;" cx="256" cy="256" r="256"/>
<path style="fill:#333333;" d="M432,364c0,8.8-7.2,16-16,16H92c-8.8,0-16-7.2-16-16V152c0-8.8,7.2-16,16-16h324c8.8,0,16,7.2,16,16
	V364z"/>
<path style="fill:#242424;" d="M373.472,372.412C374.86,376.584,372.4,380,368,380H144c-4.4,0-6.86-3.416-5.472-7.588l10.94-32.816
	C150.86,335.416,155.6,332,160,332h192c4.4,0,9.14,3.416,10.528,7.588L373.472,372.412z"/>
<path style="fill:#CCCCCC;" d="M385.084,161.656c-3.108-3.108-9.252-5.656-13.656-5.656H264c-4.4,0-11.6,0-16,0H140.568
	c-4.4,0-10.544,2.548-13.656,5.656l-25.256,25.256C98.544,190.02,96,196.168,96,200.572V308c0,4.4,3.6,8,8,8h144c4.4,0,11.6,0,16,0
	h144c4.4,0,8-3.6,8-8V200.572c0-4.4-2.548-10.548-5.656-13.656L385.084,161.656z"/>
<g>
	<circle style="fill:#333333;" cx="180" cy="236" r="28"/>
	<circle style="fill:#333333;" cx="336" cy="236" r="28"/>
	<rect x="180" y="208" style="fill:#333333;" width="156" height="56"/>
</g>
<g>
	<circle style="fill:#4AB8A1;" cx="180" cy="236" r="20"/>
	<circle style="fill:#4AB8A1;" cx="336" cy="236" r="20"/>
	<path style="fill:#4AB8A1;" d="M296.856,256c-3.084-6.008-4.856-12.796-4.856-20s1.772-13.992,4.856-20H219.14
		c3.084,6.008,4.856,12.796,4.856,20s-1.772,13.992-4.856,20H296.856z"/>
	<circle style="fill:#4AB8A1;" cx="172" cy="368" r="8"/>
	<circle style="fill:#4AB8A1;" cx="340" cy="368" r="8"/>
	<circle style="fill:#4AB8A1;" cx="204" cy="356" r="8"/>
	<circle style="fill:#4AB8A1;" cx="308" cy="356" r="8"/>
</g>
<g>
</g>
<g>
</g>
<g>
</g>
<g>
</g>
<g>
</g>
<g>
</g>
<g>
</g>
<g>
</g>
<g>
</g>
<g>
</g>
<g>
</g>
<g>
</g>
<g>
</g>
<g>
</g>
<g>
</g>
</svg>
